<?xml version="1.0" encoding="UTF-8" standalone="no"?>
<svg
   inkscape:export-ydpi="576"
   inkscape:export-xdpi="576"
   inkscape:export-filename="/media/taufikramadhan/Data/Tr Design Studio/Project Design/TR Creative Design/Icon Design/Project Hiring/Icon Icons/008 - Weather And Season/Send/3 - Flat/24 - Bon Fire.png"
   width="64pt"
   height="64pt"
   viewBox="0 0 22.577778 22.577778"
   version="1.1"
   id="svg831"
   inkscape:version="1.1.1 (1:1.1+202109281943+c3084ef5ed)"
   sodipodi:docname="24 - Bon Fire.svg"
   xmlns:inkscape="http://www.inkscape.org/namespaces/inkscape"
   xmlns:sodipodi="http://sodipodi.sourceforge.net/DTD/sodipodi-0.dtd"
   xmlns="http://www.w3.org/2000/svg"
   xmlns:svg="http://www.w3.org/2000/svg"
   xmlns:rdf="http://www.w3.org/1999/02/22-rdf-syntax-ns#"
   xmlns:cc="http://creativecommons.org/ns#"
   xmlns:dc="http://purl.org/dc/elements/1.1/">
  <defs
     id="defs825">
    <pattern
       id="EMFhbasepattern"
       patternUnits="userSpaceOnUse"
       width="6"
       height="6"
       x="0"
       y="0" />
    <pattern
       id="EMFhbasepattern-9"
       patternUnits="userSpaceOnUse"
       width="6"
       height="6"
       x="0"
       y="0" />
    <pattern
       id="EMFhbasepattern-0"
       patternUnits="userSpaceOnUse"
       width="6"
       height="6"
       x="0"
       y="0" />
    <pattern
       id="EMFhbasepattern-7"
       patternUnits="userSpaceOnUse"
       width="6"
       height="6"
       x="0"
       y="0" />
    <pattern
       id="EMFhbasepattern-2"
       patternUnits="userSpaceOnUse"
       width="6"
       height="6"
       x="0"
       y="0" />
    <pattern
       id="EMFhbasepattern-98"
       patternUnits="userSpaceOnUse"
       width="6"
       height="6"
       x="0"
       y="0" />
    <pattern
       id="EMFhbasepattern-6"
       patternUnits="userSpaceOnUse"
       width="6"
       height="6"
       x="0"
       y="0" />
    <pattern
       id="EMFhbasepattern-01"
       patternUnits="userSpaceOnUse"
       width="6"
       height="6"
       x="0"
       y="0" />
    <pattern
       id="EMFhbasepattern-07"
       patternUnits="userSpaceOnUse"
       width="6"
       height="6"
       x="0"
       y="0" />
    <pattern
       id="EMFhbasepattern-8"
       patternUnits="userSpaceOnUse"
       width="6"
       height="6"
       x="0"
       y="0" />
    <pattern
       id="EMFhbasepattern-4"
       patternUnits="userSpaceOnUse"
       width="6"
       height="6"
       x="0"
       y="0" />
    <pattern
       id="EMFhbasepattern-40"
       patternUnits="userSpaceOnUse"
       width="6"
       height="6"
       x="0"
       y="0" />
    <pattern
       id="EMFhbasepattern-08"
       patternUnits="userSpaceOnUse"
       width="6"
       height="6"
       x="0"
       y="0" />
    <pattern
       id="EMFhbasepattern-04"
       patternUnits="userSpaceOnUse"
       width="6"
       height="6"
       x="0"
       y="0" />
    <pattern
       id="EMFhbasepattern-014"
       patternUnits="userSpaceOnUse"
       width="6"
       height="6"
       x="0"
       y="0" />
    <pattern
       id="EMFhbasepattern-27"
       patternUnits="userSpaceOnUse"
       width="6"
       height="6"
       x="0"
       y="0" />
    <pattern
       id="EMFhbasepattern-09"
       patternUnits="userSpaceOnUse"
       width="6"
       height="6"
       x="0"
       y="0" />
    <pattern
       id="EMFhbasepattern-5"
       patternUnits="userSpaceOnUse"
       width="6"
       height="6"
       x="0"
       y="0" />
    <pattern
       id="EMFhbasepattern-018"
       patternUnits="userSpaceOnUse"
       width="6"
       height="6"
       x="0"
       y="0" />
  </defs>
  <sodipodi:namedview
     id="base"
     pagecolor="#ffffff"
     bordercolor="#666666"
     borderopacity="1.0"
     inkscape:pageopacity="0.0"
     inkscape:pageshadow="2"
     inkscape:zoom="6.28125"
     inkscape:cx="42.348259"
     inkscape:cy="42.666667"
     inkscape:document-units="pt"
     inkscape:current-layer="layer1"
     showgrid="false"
     units="pt"
     inkscape:window-width="1366"
     inkscape:window-height="705"
     inkscape:window-x="0"
     inkscape:window-y="31"
     inkscape:window-maximized="1"
     inkscape:pagecheckerboard="true"
     inkscape:showpageshadow="false"
     inkscape:object-paths="true"
     inkscape:snap-intersection-paths="true"
     inkscape:snap-smooth-nodes="true"
     inkscape:snap-midpoints="true"
     showguides="false"
     inkscape:snap-bbox="true"
     inkscape:bbox-nodes="true"
     inkscape:snap-nodes="false"
     inkscape:snap-global="true"
     inkscape:document-rotation="0">
    <inkscape:grid
       type="xygrid"
       id="grid1378" />
    <sodipodi:guide
       position="0.97013831,21.607643"
       orientation="78.000048,0"
       id="guide1380"
       inkscape:locked="false" />
    <sodipodi:guide
       position="0.97013831,0.97013129"
       orientation="0,78.000005"
       id="guide1382"
       inkscape:locked="false" />
    <sodipodi:guide
       position="21.607639,0.97013129"
       orientation="-78.000048,0"
       id="guide1384"
       inkscape:locked="false" />
    <sodipodi:guide
       position="21.607639,21.607643"
       orientation="0,-78.000005"
       id="guide1386"
       inkscape:locked="false" />
  </sodipodi:namedview>
  <metadata
     id="metadata828">
    <rdf:RDF>
      <cc:Work
         rdf:about="">
        <dc:format>image/svg+xml</dc:format>
        <dc:type
           rdf:resource="http://purl.org/dc/dcmitype/StillImage" />
      </cc:Work>
    </rdf:RDF>
  </metadata>
  <g
     inkscape:label="Icon"
     inkscape:groupmode="layer"
     id="layer1"
     transform="translate(0,-274.42223)">
    <g
       id="g369742"
       transform="matrix(1.2187958,0,0,1.2187958,-110.55982,-140.30605)"
       style="stroke-width:0.820482">
      <path
         style="color:#000000;fill:#9a605c;stroke-width:0.820482;stroke-linecap:round;stroke-linejoin:round;-inkscape-stroke:none"
         d="m 94.833984,351.66406 c -0.455423,0.0173 -0.865941,0.32866 -0.988281,0.78906 -0.142794,0.53684 -0.28689,1.07449 -0.429687,1.61133 -0.150542,0.56654 0.191018,1.15362 0.757812,1.30664 3.207698,0.86609 6.415302,1.73183 9.623052,2.59766 0.56632,0.15285 1.15594,-0.1856 1.30664,-0.75195 l 0.42968,-1.61133 c 0.0358,-0.13471 0.0436,-0.27586 0.0254,-0.41406 a 0.26461097,0.26461097 0 0 0 -0.16992,-0.21289 l -5.32226,-1.95118 a 0.26461097,0.26461097 0 0 0 -0.0234,-0.008 l -4.890626,-1.31836 c -0.10612,-0.0287 -0.213415,-0.041 -0.31836,-0.0371 z"
         id="path327455" />
      <path
         style="color:#000000;fill:#713832;fill-opacity:1;stroke-width:0.820482;stroke-linecap:round;stroke-linejoin:round;-inkscape-stroke:none"
         d="m 104.78516,354.30273 c -0.56888,-0.15337 -1.15861,0.18591 -1.3125,0.75196 l -0.4375,1.60742 c -0.15387,0.56549 0.18689,1.15365 0.7539,1.30664 0.56889,0.15336 1.16056,-0.18396 1.31446,-0.75 l 0.4375,-1.60938 c 0.15386,-0.56548 -0.18885,-1.15366 -0.75586,-1.30664 z"
         id="path327461" />
      <path
         style="color:#000000;fill:#713832;fill-opacity:1;stroke-width:0.820482;stroke-linecap:round;stroke-linejoin:round;-inkscape-stroke:none"
         d="m 95.261719,353.11328 a 0.2645835,0.2645835 0 0 0 -0.324219,0.1875 0.2645835,0.2645835 0 0 0 0.1875,0.32422 l 2.228516,0.5957 a 0.2645835,0.2645835 0 0 0 0.324218,-0.1875 0.2645835,0.2645835 0 0 0 -0.1875,-0.32226 z"
         id="path46861" />
      <path
         id="path360873"
         style="color:#000000;fill:#361c16;fill-opacity:1;stroke-width:0.820482;stroke-linecap:round;stroke-linejoin:round;-inkscape-stroke:none"
         d="m 99.067069,352.75626 -4.014224,1.08366 c -0.65959,0.17808 -1.109358,0.76816 -1.142566,1.42007 0.08086,0.0477 0.168873,0.0855 0.263549,0.1111 2.237584,0.60416 4.475194,1.20833 6.712772,1.81229 l 4.55372,-1.22938 0.093,-0.3483 c 0.0358,-0.13471 0.0435,-0.27624 0.0253,-0.41444 a 0.26461096,0.26461096 0 0 0 -0.1695,-0.21291 l -5.32267,-1.95079 a 0.26461096,0.26461096 0 0 0 -0.0233,-0.008 z" />
      <path
         style="color:#000000;fill:#915b57;fill-opacity:1;stroke-width:0.820482;stroke-linecap:round;stroke-linejoin:round;-inkscape-stroke:none"
         d="m 104.79883,351.70117 -9.623049,2.59766 c -0.566598,0.15297 -0.908362,0.73995 -0.757812,1.30664 l 0.427734,1.61133 c 0.150695,0.56634 0.740322,0.90479 1.306641,0.75195 l 9.624996,-2.59766 c 0.5666,-0.15297 0.90641,-0.73995 0.75586,-1.30664 l -0.42773,-1.61133 c -0.1507,-0.56634 -0.74033,-0.90478 -1.30664,-0.75195 z"
         id="path327467" />
      <path
         style="color:#000000;fill:#713832;fill-opacity:1;stroke-width:0.820482;stroke-linecap:round;stroke-linejoin:round;-inkscape-stroke:none"
         d="m 99.425781,355.49219 -2.880859,0.77734 a 0.26458451,0.26458451 0 0 0 -0.185547,0.32422 0.26458451,0.26458451 0 0 0 0.324219,0.1875 l 2.880859,-0.77734 A 0.26458451,0.26458451 0 0 0 99.75,355.67773 0.26458451,0.26458451 0 0 0 99.425781,355.49219 Z"
         id="path39396" />
      <path
         id="path347211"
         style="color:#000000;fill:#552b26;fill-opacity:1;stroke-width:0.820482;stroke-linecap:round;stroke-linejoin:round;-inkscape-stroke:none"
         d="m 105.06445,351.66448 c -0.0879,7.9e-4 -0.17713,0.0128 -0.26562,0.0367 l -9.623184,2.59777 c -0.519314,0.14021 -0.849353,0.64519 -0.784966,1.16479 0.07871,-0.0455 0.164213,-0.0817 0.255799,-0.10645 l 9.623181,-2.59778 c 0.56631,-0.15283 1.1562,0.18556 1.3069,0.7519 l 0.42737,1.61127 c 0.0126,0.0476 0.022,0.0955 0.0279,0.14314 0.40882,-0.23556 0.62764,-0.72576 0.50126,-1.20148 l -0.42736,-1.61127 c -0.12715,-0.47785 -0.56683,-0.79342 -1.04128,-0.78858 z" />
      <path
         style="color:#000000;fill:#713832;fill-opacity:1;stroke-width:0.820482;stroke-linecap:round;stroke-linejoin:round;-inkscape-stroke:none"
         d="m 95.173828,354.30078 c -0.567016,0.15298 -0.909718,0.74116 -0.755859,1.30664 l 0.4375,1.60938 c 0.153893,0.56604 0.74557,0.90335 1.314453,0.75 0.567011,-0.15299 0.909718,-0.74116 0.755859,-1.30664 l -0.439453,-1.60743 c -0.153894,-0.56604 -0.743617,-0.90532 -1.3125,-0.75195 z"
         id="path327477" />
      <path
         style="color:#000000;fill:#713832;fill-opacity:1;stroke-width:0.820482;stroke-linecap:round;stroke-linejoin:round;-inkscape-stroke:none"
         d="m 101.125,353.93359 -2.191406,0.5918 c -0.738797,0.14904 -1.138274,0.97839 -0.791016,1.64648 A 0.26458451,0.26458451 0 0 0 98.5,356.2832 a 0.26458451,0.26458451 0 0 0 0.113281,-0.35547 c -0.191212,-0.36787 0.01672,-0.80029 0.425781,-0.88281 a 0.26461097,0.26461097 0 0 0 0.01563,-0.004 l 2.207038,-0.59766 a 0.26458451,0.26458451 0 0 0 0.1875,-0.32422 0.26458451,0.26458451 0 0 0 -0.32422,-0.18555 z"
         id="path40583" />
      <path
         style="color:#000000;fill:#dc1d4b;stroke-width:0.820482;stroke-linecap:round;stroke-linejoin:round;-inkscape-stroke:none"
         d="m 99.541016,341.09766 a 0.26460847,0.26460847 0 0 0 -0.353516,0.3457 c 0,0 0.09239,0.21473 0.08594,0.49609 -0.0065,0.28137 -0.0913,0.5982 -0.519531,0.87305 -0.533598,0.34232 -1.220258,0.94973 -1.787109,1.75195 -0.566852,0.80222 -1.011719,1.80244 -1.011719,2.91407 8.5e-5,2.20092 1.987663,3.96093 4.398439,3.96093 2.41075,0 4.39837,-1.76001 4.39843,-3.96093 0,-0.12573 -0.005,-0.2468 -0.0137,-0.36719 a 0.26460847,0.26460847 0 0 0 -0.4707,-0.14649 c -0.18445,0.22914 -0.496,0.38612 -0.85547,0.38672 -0.3033,-1.1e-4 -0.58597,-0.10514 -0.75,-0.26562 -0.16404,-0.16048 -0.24288,-0.35829 -0.14648,-0.69141 0.39012,-1.34725 0.30787,-2.39974 -0.22852,-3.24414 -0.53639,-0.8444 -1.48172,-1.45665 -2.746091,-2.05273 z"
         id="path327487" />
      <path
         style="color:#000000;fill:#b11e48;stroke-width:0.820482;stroke-linecap:round;stroke-linejoin:round;-inkscape-stroke:none"
         d="m 100.35352,346.85156 a 0.26460847,0.26460847 0 0 0 -0.20118,0.0918 c 0,0 -0.371977,0.43578 -0.74609,0.97461 -0.187056,0.26941 -0.375785,0.56605 -0.521484,0.85547 -0.1457,0.28942 -0.257813,0.56552 -0.257813,0.8457 0,0.11782 0.01204,0.23226 0.03516,0.34375 a 0.26458201,0.26458201 0 0 0 0.314453,0.20703 0.26458201,0.26458201 0 0 0 0.205079,-0.31445 c -0.01582,-0.0763 -0.02539,-0.15465 -0.02539,-0.23633 0,-0.11868 0.07299,-0.35475 0.201172,-0.60937 0.128184,-0.25463 0.3043,-0.53447 0.482422,-0.79102 0.255971,-0.36867 0.389431,-0.51731 0.513681,-0.66797 0.12429,0.15073 0.25585,0.29945 0.51171,0.66797 0.17813,0.25655 0.3562,0.53639 0.48438,0.79102 0.12818,0.25462 0.19922,0.49069 0.19922,0.60937 0,0.0816 -0.008,0.16007 -0.0234,0.23633 a 0.26458201,0.26458201 0 0 0 0.20508,0.31445 0.26458201,0.26458201 0 0 0 0.3125,-0.20508 c 0.0232,-0.11159 0.0352,-0.22795 0.0352,-0.3457 0,-0.28018 -0.11017,-0.55628 -0.25586,-0.8457 -0.1457,-0.28942 -0.33443,-0.58606 -0.52149,-0.85547 -0.37411,-0.53883 -0.74609,-0.97461 -0.74609,-0.97461 a 0.26460847,0.26460847 0 0 0 -0.20117,-0.0918 z"
         id="path46088" />
      <path
         id="path344394"
         style="color:#000000;fill:#b11e48;fill-opacity:1;stroke-width:0.820482;stroke-linecap:round;stroke-linejoin:round;-inkscape-stroke:none"
         d="m 102.2871,343.15024 c -0.54729,-0.84646 -1.42379,-1.37653 -2.287198,-1.82779 -0.1479,-0.0754 -0.30084,-0.15029 -0.458886,-0.22479 -0.0602,-0.0227 -0.08438,-0.0219 -0.11394,-0.0246 -0.184793,10e-4 -0.316195,0.19369 -0.239263,0.37052 l 0.06232,0.22074 c 0.07838,-0.0726 0.193983,-0.0818 0.291146,-0.0373 0.836971,0.45957 1.708521,0.79975 2.216921,1.52342 0.53639,0.8444 0.61853,1.897 0.2284,3.24425 -0.2098,0.85864 0.76896,1.47741 1.42576,1.48621 0.1478,-2.4e-4 0.28741,-0.027 0.41339,-0.0743 0.24452,-0.0918 0.39459,-0.0448 0.35499,0.21545 -0.28332,1.86216 -2.00118,3.29807 -4.0917,3.41054 0.0876,0.005 0.17576,0.007 0.26459,0.007 2.32078,0 4.24863,-1.63124 4.3894,-3.71657 0.017,-0.20659 0.005,-0.41317 -0.005,-0.61186 -0.004,-0.0444 -0.0165,-0.0865 -0.0419,-0.12456 -0.11227,-0.15814 -0.29768,-0.16746 -0.42896,-0.0217 -0.23371,0.24283 -0.56388,0.38184 -0.85527,0.38653 -0.57784,-0.0279 -1.06789,-0.34069 -0.89664,-0.95718 0.26044,-0.92593 0.32601,-1.88717 0.0253,-2.74655 -0.0736,-0.17125 -0.16483,-0.33394 -0.25383,-0.49771 z"
         sodipodi:nodetypes="ccccccccccccsccccccccc" />
      <path
         style="color:#000000;fill:#b11e48;fill-opacity:1;stroke-width:0.820482;stroke-linecap:round;stroke-linejoin:round;-inkscape-stroke:none"
         d="m 94.792969,348.54297 c -0.442315,0 -0.806641,0.36432 -0.806641,0.80664 0,0.44231 0.364326,0.80664 0.806641,0.80664 0.442314,0 0.80664,-0.36433 0.80664,-0.80664 0,-0.44232 -0.364326,-0.80664 -0.80664,-0.80664 z"
         id="path327501" />
      <path
         style="color:#000000;fill:#b11e48;fill-opacity:1;stroke-width:0.820482;stroke-linecap:round;stroke-linejoin:round;-inkscape-stroke:none"
         d="m 104.75195,344.19336 c -0.44231,0 -0.80664,0.36433 -0.80664,0.80664 0,0.44231 0.36433,0.80664 0.80664,0.80664 0.44232,0 0.80664,-0.36433 0.80664,-0.80664 0,-0.44231 -0.36432,-0.80664 -0.80664,-0.80664 z"
         id="path327507" />
      <path
         style="color:#000000;fill:#713832;fill-opacity:1;stroke-width:0.820482;stroke-linecap:round;stroke-linejoin:round;-inkscape-stroke:none"
         d="m 103.96094,353.17383 -1.47266,0.39453 a 0.2645835,0.2645835 0 0 0 -0.1875,0.32422 0.2645835,0.2645835 0 0 0 0.32422,0.1875 l 1.47266,-0.39649 a 0.2645835,0.2645835 0 0 0 0.1875,-0.32422 0.2645835,0.2645835 0 0 0 -0.32422,-0.18554 z"
         id="path47082" />
      <path
         style="color:#000000;fill:#b11e48;stroke-width:0.820482;stroke-linecap:round;stroke-linejoin:round;-inkscape-stroke:none"
         d="m 97.960937,345.45703 a 0.2645835,0.2645835 0 0 0 -0.36914,0.0566 c -1.124657,1.5213 -0.216797,3.36719 -0.216797,3.36719 a 0.2645835,0.2645835 0 0 0 0.353516,0.12109 0.2645835,0.2645835 0 0 0 0.123046,-0.35351 c 0,0 -0.752967,-1.57723 0.166016,-2.82032 a 0.2645835,0.2645835 0 0 0 -0.05664,-0.37109 z"
         id="path60174" />
      <path
         id="path354437"
         style="color:#000000;fill:#552b26;fill-opacity:1;stroke-width:0.820482;stroke-linecap:round;stroke-linejoin:round;-inkscape-stroke:none"
         d="m 95.439962,354.26408 c -0.08816,7.9e-4 -0.177247,0.0127 -0.266134,0.0367 -0.318709,0.086 -0.566423,0.30945 -0.69505,0.58911 0.05277,-0.0241 0.10818,-0.0444 0.165883,-0.06 0.568881,-0.15337 1.158687,0.18586 1.312579,0.7519 l 0.439251,1.60765 c 0.06738,0.24764 0.03924,0.49938 -0.06098,0.71727 0.465772,-0.21272 0.728347,-0.7385 0.590145,-1.24644 l -0.439251,-1.60765 c -0.129847,-0.4776 -0.570365,-0.79357 -1.046445,-0.78858 z" />
    </g>
  </g>
</svg>
